<svg xmlns="http://www.w3.org/2000/svg" width="59" height="53" viewBox="0 0 59 53">
  <path id="card_icon" data-name="card icon" d="M4729.82,1669v-10.616H4749v1.127a9.494,9.494,0,0,1-9.506,9.488Zm-16.874,0v-53h26.547a9.5,9.5,0,0,1,9.506,9.487v1.134h-22.553V1669Zm-13.441,0a9.493,9.493,0,0,1-9.5-9.488v-1.127h19.571V1669Zm30.315-13.98V1644.19H4749v10.829Zm-39.819,0V1644.19h19.569v10.829Zm39.819-14.2v-10.83H4749v10.83Zm-39.819,0v-10.83h19.569v10.83Zm0-14.2v-1.12a9.5,9.5,0,0,1,9.5-9.5h10.07v10.621Z" transform="translate(-4690 -1616)" fill="#fddd07"/>
</svg>
