<svg xmlns="http://www.w3.org/2000/svg" width="40.014" height="40.012" viewBox="0 0 40.014 40.012">
  <path id="clock" d="M4061.185,887.407a19.994,19.994,0,0,1-12.209-18.43,20.053,20.053,0,1,1,12.209,18.43Zm-1.027-33.642a17.56,17.56,0,0,0-6.411,6.413,17.719,17.719,0,0,0-.963,15.651,17.2,17.2,0,0,0,9.343,9.368,16.932,16.932,0,0,0,6.825,1.4,17.226,17.226,0,0,0,8.816-2.363,17.558,17.558,0,0,0,6.432-6.414,17.654,17.654,0,0,0,0-17.642,17.616,17.616,0,0,0-6.431-6.413,17.576,17.576,0,0,0-17.61,0Zm14.5,22.917-6.541-6.545a1.142,1.142,0,0,1-.328-.985.973.973,0,0,0-.045-.174V857.463a1.234,1.234,0,0,1,1.2-1.225,1.262,1.262,0,0,1,1.269,1.225V868.8l6.125,6.173a1.2,1.2,0,0,1-1.684,1.708Z" transform="translate(-4048.977 -848.993)" fill="#212f49"/>
</svg>
