<svg xmlns="http://www.w3.org/2000/svg" width="40.013" height="39.816" viewBox="0 0 40.013 39.816">
  <path id="directions" d="M4088.561,815.665l-7.086-5.56a.855.855,0,0,0-.624-.234h-10.794v-1.989H4082a1.075,1.075,0,0,0,1.074-1.093V795.649a1.059,1.059,0,0,0-1.074-1.073h-24.866a1.085,1.085,0,0,0-.683.234l-7.066,5.56a1.068,1.068,0,0,0-.411.878,1.015,1.015,0,0,0,.411.839l7.066,5.541a1.056,1.056,0,0,0,.683.254h10.754v1.989h-11.906a1.032,1.032,0,0,0-.76.312,1.05,1.05,0,0,0-.332.762V822.1a1.074,1.074,0,0,0,1.093,1.073h11.906V833.32a1.058,1.058,0,0,0,1.074,1.073,1.073,1.073,0,0,0,1.092-1.073V823.176h10.794a.853.853,0,0,0,.624-.235l7.086-5.559a1.053,1.053,0,0,0,.429-.877A1.008,1.008,0,0,0,4088.561,815.665Zm-31.073-9.95-5.66-4.468,5.66-4.525h23.44v8.992h-23.44Zm22.953,15.294h-23.383v-8.973h23.383l5.719,4.468Z" transform="translate(-4048.977 -794.576)" fill="#212f49"/>
</svg>
