<svg xmlns="http://www.w3.org/2000/svg" width="32.004" height="36.018" viewBox="0 0 32.004 36.018">
  <path id="negative" d="M3872.667,751.953v-2.181a1.067,1.067,0,0,1,2.134,0v2.181a1.067,1.067,0,0,1-2.134,0Zm7.1-2.105-1.507-1.493a1.046,1.046,0,0,1,0-1.492,1.072,1.072,0,0,1,1.507,0l1.509,1.492a1.047,1.047,0,0,1,0,1.493,1.077,1.077,0,0,1-1.509,0Zm-13.576,0a1.047,1.047,0,0,1,0-1.493l1.509-1.492a1.073,1.073,0,0,1,1.508,0,1.047,1.047,0,0,1,0,1.492l-1.508,1.493a1.077,1.077,0,0,1-1.509,0Zm8.611-3.241a4.252,4.252,0,0,1-4.27-4.222v-1.055a20.241,20.241,0,0,1,.879-5.347H3865.2a3.188,3.188,0,0,1-3.2-3.166,3.134,3.134,0,0,0,0-4.221,3.134,3.134,0,0,0,0-4.221,3.179,3.179,0,0,1,2.358-3.055,3.124,3.124,0,0,1-.223-1.166,3.186,3.186,0,0,1,3.2-3.165h8.936a11.833,11.833,0,0,1,3.71.6l3.666,1.21a3.207,3.207,0,0,1,2.89-1.805h6.4a1.062,1.062,0,0,1,1.067,1.055v18.994a1.062,1.062,0,0,1-1.067,1.056h-6.4a3.211,3.211,0,0,1-2.979-2.006c-2.675.645-5.259,4.2-6.074,7.418l-.581,2.3a1.066,1.066,0,0,1-1.036.8Zm-2.134-5.276v1.055a2.125,2.125,0,0,0,2.134,2.111h.233l.379-1.5a15.344,15.344,0,0,1,3.13-5.943,8.625,8.625,0,0,1,4.792-3.079V720.916l-4.027-1.328a9.727,9.727,0,0,0-3.037-.487h-8.936a1.056,1.056,0,1,0,0,2.111,1.055,1.055,0,1,1,0,2.109H3865.2a1.056,1.056,0,1,0,0,2.112h2.135a1.055,1.055,0,1,1,0,2.11H3865.2a1.055,1.055,0,1,0,0,2.111h2.135a1.055,1.055,0,1,1,0,2.11H3865.2a1.055,1.055,0,1,0,0,2.111h10.668a1.055,1.055,0,1,1,0,2.11h-2.178A16.52,16.52,0,0,0,3872.667,741.331Zm12.8-21.175v14.773a1.061,1.061,0,0,0,1.065,1.055h5.333V719.1h-5.333A1.061,1.061,0,0,0,3885.469,720.156Zm2.131,2.114a1.07,1.07,0,1,1,1.07,1.05A1.06,1.06,0,0,1,3887.6,722.27Z" transform="translate(-3861.998 -716.991)" fill="#fc0056"/>
</svg>
