<svg xmlns="http://www.w3.org/2000/svg" width="32.005" height="35.986" viewBox="0 0 32.005 35.986">
  <path id="positive" d="M3879.636,532.946a11.869,11.869,0,0,1-3.711-.594l-3.665-1.208a3.209,3.209,0,0,1-2.891,1.8h-6.4a1.061,1.061,0,0,1-1.067-1.053V512.915a1.062,1.062,0,0,1,1.067-1.055h6.4a3.207,3.207,0,0,1,2.979,2c2.676-.645,5.259-4.2,6.074-7.412l.581-2.3a1.065,1.065,0,0,1,1.036-.8h1.065a4.25,4.25,0,0,1,4.27,4.218v1.053a20.176,20.176,0,0,1-.88,5.343h6.212a3.187,3.187,0,0,1,3.2,3.163,3.132,3.132,0,0,0,0,4.217,3.133,3.133,0,0,0,0,4.218,3.178,3.178,0,0,1-2.359,3.052,3.1,3.1,0,0,1,.224,1.165,3.185,3.185,0,0,1-3.2,3.162Zm.857-25.982a15.321,15.321,0,0,1-3.131,5.938,8.626,8.626,0,0,1-4.791,3.077v13.045l4.026,1.326a9.734,9.734,0,0,0,3.038.487h8.936a1.055,1.055,0,1,0,0-2.109,1.054,1.054,0,1,1,0-2.108h2.135a1.055,1.055,0,1,0,0-2.11h-2.135a1.054,1.054,0,1,1,0-2.107h2.135a1.054,1.054,0,1,0,0-2.109h-2.135a1.054,1.054,0,1,1,0-2.109h2.135a1.054,1.054,0,1,0,0-2.109H3880.04a1.054,1.054,0,1,1,0-2.108h2.178a16.5,16.5,0,0,0,1.022-5.343v-1.053a2.124,2.124,0,0,0-2.135-2.109h-.233Zm-16.456,23.873h5.333a1.061,1.061,0,0,0,1.066-1.053V515.022a1.062,1.062,0,0,0-1.066-1.053h-5.333Zm2.132-3.167a1.07,1.07,0,1,1,1.07,1.051A1.061,1.061,0,0,1,3866.169,527.67ZM3886.7,503.1a1.047,1.047,0,0,1,0-1.491l1.509-1.491a1.076,1.076,0,0,1,1.509,0,1.046,1.046,0,0,1,0,1.491l-1.509,1.491a1.076,1.076,0,0,1-1.509,0Zm-10.559,0-1.51-1.491a1.047,1.047,0,0,1,0-1.491,1.078,1.078,0,0,1,1.51,0l1.507,1.491a1.047,1.047,0,0,1,0,1.491,1.074,1.074,0,0,1-1.507,0Zm6.021-1.85a1.061,1.061,0,0,1-1.06-1.06V498.02a1.061,1.061,0,0,1,1.06-1.06h.01a1.061,1.061,0,0,1,1.06,1.06v2.169a1.061,1.061,0,0,1-1.06,1.06Z" transform="translate(-3861.903 -496.96)" fill="#008824"/>
</svg>
