<svg xmlns="http://www.w3.org/2000/svg" width="29.05" height="39.974" viewBox="0 0 29.05 39.974">
  <path id="Forma_1" data-name="Forma 1" d="M4438.99,3258.522l-2.111-23.395a1.245,1.245,0,0,0-1.237-1.137h-3.719v-2.5a7.481,7.481,0,0,0-2.173-5.306,7.366,7.366,0,0,0-5.266-2.189,7.476,7.476,0,0,0-7.439,7.5v2.5h-3.72a1.242,1.242,0,0,0-1.235,1.137l-2.11,23.395a5.03,5.03,0,0,0,1.277,3.823,4.951,4.951,0,0,0,3.663,1.626h19.13a4.955,4.955,0,0,0,3.663-1.626A5.05,5.05,0,0,0,4438.99,3258.522Zm-19.466-27.03a4.983,4.983,0,0,1,4.96-5,4.919,4.919,0,0,1,3.513,1.457,4.98,4.98,0,0,1,1.446,3.54v2.5h-9.919Zm16.356,29.169a2.454,2.454,0,0,1-1.832.812H4414.92a2.442,2.442,0,0,1-1.831-.815,2.478,2.478,0,0,1-.638-1.911l2.006-22.258h2.587v3.748a1.24,1.24,0,1,0,2.479,0v-3.748h9.919v3.748a1.24,1.24,0,1,0,2.479,0v-3.748h2.585l2.009,22.261A2.479,2.479,0,0,1,4435.88,3260.661Z" transform="translate(-4409.96 -3223.997)" fill="#212f49"/>
</svg>
