<svg xmlns="http://www.w3.org/2000/svg" width="39.975" height="34.945" viewBox="0 0 39.975 34.945">
  <path id="Forma_1" data-name="Forma 1" d="M4406.5,3333.675a2.5,2.5,0,0,1-2.5-2.5v-22.465a2.5,2.5,0,0,1,2.5-2.495h13.742a1.247,1.247,0,1,1,0,2.495H4406.5v4.993h13.742a1.248,1.248,0,0,1,0,2.5H4406.5v14.976h34.978v-8.736a1.249,1.249,0,0,1,2.5,0v8.736a2.5,2.5,0,0,1-2.5,2.5Zm26.861-10.149c-6.831-3.931-9.372-7.944-9.372-14.812v-4.991a1.252,1.252,0,0,1,.755-1.149l8.744-3.744a1.273,1.273,0,0,1,.986,0l8.745,3.744a1.25,1.25,0,0,1,.757,1.149v4.991c0,6.878-2.541,10.892-9.372,14.812a1.254,1.254,0,0,1-1.244,0Zm-6.875-18.979v4.167c0,5.757,1.909,8.929,7.5,12.281,5.586-3.345,7.5-6.518,7.5-12.281v-4.167l-7.5-3.211Zm-16.239,19.144a1.248,1.248,0,1,1,0-2.5h5a1.248,1.248,0,1,1,0,2.5Zm22.433-8.736a1.264,1.264,0,0,1-.987-.557l-2.5-3.744a1.249,1.249,0,0,1,2.079-1.383l1.552,2.322,3.929-4.908a1.249,1.249,0,0,1,1.951,1.56l-5,6.24a1.253,1.253,0,0,1-.977.469Z" transform="translate(-4403.996 -3298.73)" fill="#212f49"/>
</svg>
