<svg xmlns="http://www.w3.org/2000/svg" width="40.021" height="40.026" viewBox="0 0 40.021 40.026">
  <path id="Forma_1" data-name="Forma 1" d="M4429.959,3408a5.009,5.009,0,0,1-5-5l1.256-13.872a1.248,1.248,0,0,1,1.246-1.138h2.5v-2.5a5,5,0,1,1,10.006,0v2.5h2.5a1.249,1.249,0,0,1,1.245,1.138l1.251,13.759a5.027,5.027,0,0,1-5,5.116Zm-2.507-4.89a2.49,2.49,0,0,0,2.507,2.389h10.006a2.5,2.5,0,0,0,2.5-2.5l-1.141-12.507h-1.36v3.751a1.252,1.252,0,0,1-2.5,0v-3.751h-5v3.751a1.25,1.25,0,1,1-2.5,0v-3.751h-1.36Zm5.007-17.624v2.5h5v-2.5a2.5,2.5,0,1,0-5,0Zm-13.393,22.149c-.575-.579-14.124-14.247-14.124-24.651a15.012,15.012,0,0,1,28.388-6.814,1.251,1.251,0,1,1-2.228,1.138,12.511,12.511,0,0,0-23.659,5.676c0,7.95,9.522,18.764,12.513,21.959.1-.11.213-.229.33-.358a1.252,1.252,0,0,1,1.836,1.7c-.8.86-1.286,1.349-1.286,1.349a1.258,1.258,0,0,1-1.771,0Zm-6.62-24.651a7.505,7.505,0,1,1,7.506,7.505A7.515,7.515,0,0,1,4412.446,3382.981Zm2.5,0a5,5,0,1,0,5-5A5.009,5.009,0,0,0,4414.948,3382.981Z" transform="translate(-4404.942 -3367.971)" fill="#212f49"/>
</svg>
