<svg xmlns="http://www.w3.org/2000/svg" width="40.012" height="29.997" viewBox="0 0 40.012 29.997">
  <path id="Forma_1" data-name="Forma 1" d="M4406.345,3472.983a2.267,2.267,0,0,1-1.683-.69,2.377,2.377,0,0,1-.685-1.7v-25.221a2.348,2.348,0,0,1,.685-1.677,2.264,2.264,0,0,1,1.683-.71h35.276a2.26,2.26,0,0,1,1.683.71,2.343,2.343,0,0,1,.686,1.677V3470.6a2.366,2.366,0,0,1-.686,1.7,2.26,2.26,0,0,1-1.683.69Zm-.214-2.388a.25.25,0,0,0,.214.2h35.276c.137,0,.2-.059.2-.2v-15.434h-35.686Zm0-25.221v4.2h35.686v-4.2c0-.138-.059-.2-.2-.2h-35.276A.25.25,0,0,0,4406.131,3445.374Zm5.5,20.979a1.086,1.086,0,0,1,0-2.171h13.391a1.086,1.086,0,0,1,0,2.171Zm21.079-2.3v-4.759h4.7v4.759Zm-21.079-2.592a1.086,1.086,0,0,1,0-2.171h16.835a1.086,1.086,0,0,1,0,2.171Z" transform="translate(-4403.978 -3442.986)" fill="#212f49"/>
</svg>
