<svg xmlns="http://www.w3.org/2000/svg" width="40.011" height="33.017" viewBox="0 0 40.011 33.017">
  <path id="Forma_1" data-name="Forma 1" d="M4441.372,3506.99h-34.784a2.493,2.493,0,0,0-1.865.778,2.645,2.645,0,0,0-.758,1.888v27.727a2.587,2.587,0,0,0,.758,1.865,2.525,2.525,0,0,0,1.865.759h34.784a2.476,2.476,0,0,0,1.844-.759,2.586,2.586,0,0,0,.759-1.865v-27.727A2.612,2.612,0,0,0,4441.372,3506.99Zm.218,30.393c0,.153-.065.218-.218.218h-34.784c-.152,0-.216-.065-.216-.218V3513.3l16.741,17.114a1.141,1.141,0,0,0,.846.347H4424a1.166,1.166,0,0,0,.889-.347l16.7-17.115v24.08Zm0-27.51L4424,3527.882l-17.631-18.008v-.217c0-.171.064-.26.216-.26h34.784c.153,0,.218.089.218.26v.217Z" transform="translate(-4403.964 -3506.99)" fill="#212f49"/>
</svg>
