<svg xmlns="http://www.w3.org/2000/svg" width="40.002" height="34.512" viewBox="0 0 40.002 34.512">
  <path id="Shape_1" data-name="Shape 1" d="M4432.788,4097.755a1.477,1.477,0,0,1,0-2.954h8.247v-28.6h-8.247a1.478,1.478,0,0,1,0-2.956h9.722a1.481,1.481,0,0,1,1.475,1.478v31.556a1.482,1.482,0,0,1-1.475,1.478Zm-8.3-7.494a1.488,1.488,0,0,1,0-2.092l6.173-6.181h-15.993a1.477,1.477,0,0,1,0-2.954h15.993l-6.173-6.18a1.479,1.479,0,0,1,2.092-2.092l8.687,8.7a1.487,1.487,0,0,1-.006,2.1l-8.689,8.7a1.465,1.465,0,0,1-2.083,0Zm-19.034-8.281a1.478,1.478,0,0,1,0-2.956h3.362a1.478,1.478,0,0,1,0,2.956Z" transform="translate(-4403.983 -4063.243)" fill="#212f49"/>
</svg>
